<svg width="200" height="200" viewBox="0 0 200 200" fill="none" xmlns="http://www.w3.org/2000/svg">
<g clip-path="url(#clip0_1877_37)">
<path d="M100 194C106.233 194 112.21 191.524 116.617 187.117C121.024 182.71 123.5 176.733 123.5 170.5H76.5C76.5 176.733 78.9759 182.71 83.383 187.117C87.7901 191.524 93.7674 194 100 194ZM111.691 18.9133C111.855 17.2795 111.675 15.6295 111.162 14.0696C110.649 12.5098 109.815 11.0747 108.714 9.85706C107.612 8.63939 106.267 7.66611 104.767 7.00001C103.266 6.3339 101.642 5.98975 100 5.98975C98.358 5.98975 96.7342 6.3339 95.2334 7.00001C93.7326 7.66611 92.388 8.63939 91.2865 9.85706C90.1849 11.0747 89.3508 12.5098 88.8379 14.0696C88.325 15.6295 88.1448 17.2795 88.3088 18.9133C75.0259 21.6105 63.0842 28.8175 54.5077 39.3128C45.9311 49.8081 41.2473 62.9461 41.25 76.5C41.25 89.4015 35.375 147 17.75 158.75H182.25C164.625 147 158.75 89.4015 158.75 76.5C158.75 48.065 138.54 24.33 111.691 18.9133Z" fill="#7C4FFF"/>
</g>
<defs>
<clipPath id="clip0_1877_37">
<rect width="188" height="188" fill="white" transform="translate(6 6)"/>
</clipPath>
</defs>
</svg>
