<svg width="200" height="200" viewBox="0 0 200 200" fill="none" xmlns="http://www.w3.org/2000/svg">
<path d="M99.5 8C150.586 8 192 49.4137 192 100.5C192 151.586 150.586 193 99.5 193C48.4137 193 7 151.586 7 100.5C7 49.4137 48.4137 8 99.5 8ZM101.664 34C93.3798 34 86.6641 40.7157 86.6641 49V83.3359H48C39.7158 83.3359 33.0001 90.0518 33 98.3359C33 106.62 39.7157 113.336 48 113.336H86.6641V152C86.6641 160.284 93.3798 167 101.664 167C109.948 167 116.664 160.284 116.664 152V113.336H151C159.284 113.336 166 106.62 166 98.3359C166 90.0518 159.284 83.3359 151 83.3359H116.664V49C116.664 40.7158 109.948 34.0001 101.664 34Z" fill="url(#paint0_linear_2284_91)"/>
<defs>
<linearGradient id="paint0_linear_2284_91" x1="99.5" y1="8" x2="99.5" y2="193" gradientUnits="userSpaceOnUse">
<stop stop-color="#7C4FFF"/>
<stop offset="1" stop-color="#4A2F99"/>
</linearGradient>
</defs>
</svg>
