<svg width="200" height="200" viewBox="0 0 200 200" fill="none" xmlns="http://www.w3.org/2000/svg">
<path d="M100 18C146.944 18 185 56.0558 185 103C185 149.944 146.944 188 100 188C53.0558 188 15 149.944 15 103C15 56.0558 53.0558 18 100 18ZM86.0635 34.6719C84.8682 32.2922 81.9478 31.321 79.541 32.5029L45.5957 49.1738C43.1894 50.3559 42.2073 53.2434 43.4023 55.623L50.2705 69.2988C33.2643 92.7682 35.52 125.631 56.9307 146.595C80.671 169.84 118.972 169.652 142.479 146.176C165.985 122.699 165.795 84.8244 142.055 61.5791C140.571 60.1265 139.03 58.7648 137.439 57.4951L135.691 56.2373L135.178 56.749L136.474 50.46C137.01 47.856 135.31 45.3154 132.677 44.7852L116.692 41.5654L119.456 72.4131L117.513 74.3535L114.254 38.8555C114.011 36.2092 111.644 34.2588 108.968 34.499L89.6895 36.2295L111.734 80.125L109.84 82.0166L86.0635 34.6719ZM135.445 81.9512C145.596 98.0422 143.664 119.485 129.583 133.549C113.129 149.982 86.3179 150.114 69.6992 133.843C57.3103 121.712 54.0849 103.891 60.0625 88.7959L68.8037 106.201C69.9989 108.581 72.9184 109.553 75.3252 108.371L84.0146 104.103C84.1171 108.009 85.6851 111.884 88.7148 114.851C94.946 120.952 104.999 120.902 111.169 114.74C114.737 111.177 116.225 106.349 115.64 101.731L135.445 81.9512Z" fill="url(#paint0_linear_2283_33)"/>
<defs>
<linearGradient id="paint0_linear_2283_33" x1="100" y1="18" x2="100" y2="188" gradientUnits="userSpaceOnUse">
<stop stop-color="#7C4FFF"/>
<stop offset="1" stop-color="#4A2F99"/>
</linearGradient>
</defs>
</svg>
