<svg width="200" height="200" viewBox="0 0 200 200" fill="none" xmlns="http://www.w3.org/2000/svg">
<g clip-path="url(#clip0_2284_70)">
<path d="M100 112.949C98.4007 112.949 96.8397 112.793 95.3172 112.483C93.7946 112.173 92.3169 111.703 90.8839 111.072L9.79806 76.5425C8.0388 75.7918 6.79773 74.8535 6.07483 73.7276C5.35194 72.6016 4.99369 71.3505 5.00008 69.9743C5.00648 68.5982 5.36793 67.3471 6.08443 66.2211C6.80093 65.0952 8.0388 64.1569 9.79806 63.4062L90.8839 28.8767C92.3233 28.2512 93.8042 27.7808 95.3268 27.4655C96.8493 27.1502 98.4071 26.9951 100 27.0001C101.593 27.0051 103.154 27.1628 104.683 27.473C106.212 27.7833 107.69 28.2512 109.116 28.8767L190.202 63.4062C191.961 64.1569 193.202 65.0952 193.925 66.2211C194.648 67.3471 195.006 68.5982 195 69.9743C194.994 71.3505 194.635 72.6016 193.925 73.7276C193.215 74.8535 191.974 75.7918 190.202 76.5425L109.116 111.072C107.677 111.698 106.199 112.168 104.683 112.483C103.167 112.798 101.606 112.954 100 112.949ZM100 127.961L175.328 95.8715C175.648 95.7464 177.167 95.4336 179.886 94.9332C182.605 94.9332 184.886 95.6538 186.728 97.095C188.571 98.5363 189.489 100.318 189.482 102.44C189.482 103.816 189.082 105.067 188.283 106.193C187.483 107.319 186.204 108.257 184.444 109.008L109.116 141.098C107.677 141.723 106.199 142.194 104.683 142.509C103.167 142.824 101.606 142.979 100 142.974C98.3943 142.969 96.8333 142.814 95.3172 142.509C93.801 142.204 92.3233 141.733 90.8839 141.098L15.5556 109.008C13.7964 108.257 12.5169 107.319 11.7172 106.193C10.9176 105.067 10.5178 103.816 10.5178 102.44C10.5178 100.313 11.439 98.5313 13.2814 97.095C15.1238 95.6588 17.4013 94.9382 20.1137 94.9332C20.9134 94.9332 21.6747 95.0283 22.3975 95.2184C23.1204 95.4086 23.8785 95.6263 24.6718 95.8715L100 127.961ZM100 157.987L175.328 125.897C175.648 125.772 177.167 125.459 179.886 124.959C182.605 124.959 184.886 125.679 186.728 127.121C188.571 128.562 189.489 130.343 189.482 132.465C189.482 133.841 189.082 135.093 188.283 136.218C187.483 137.344 186.204 138.283 184.444 139.033L109.116 171.123C107.677 171.749 106.199 172.219 104.683 172.534C103.167 172.85 101.606 173.005 100 173C98.3943 172.995 96.8333 172.84 95.3172 172.534C93.801 172.229 92.3233 171.759 90.8839 171.123L15.5556 139.033C13.7964 138.283 12.5169 137.344 11.7172 136.218C10.9176 135.093 10.5178 133.841 10.5178 132.465C10.5178 130.338 11.439 128.557 13.2814 127.121C15.1238 125.684 17.4013 124.964 20.1137 124.959C20.9134 124.959 21.6747 125.054 22.3975 125.244C23.1204 125.434 23.8785 125.652 24.6718 125.897L100 157.987Z" fill="url(#paint0_linear_2284_70)"/>
</g>
<defs>
<linearGradient id="paint0_linear_2284_70" x1="100" y1="27" x2="100" y2="173" gradientUnits="userSpaceOnUse">
<stop stop-color="#7C4FFF"/>
<stop offset="1" stop-color="#4A2F99"/>
</linearGradient>
<clipPath id="clip0_2284_70">
<rect width="200" height="200" fill="white"/>
</clipPath>
</defs>
</svg>
