<svg width="200" height="200" viewBox="0 0 200 200" fill="none" xmlns="http://www.w3.org/2000/svg">
<path d="M26.8408 122.907C27.5731 122.907 28.2706 122.994 28.9326 123.169C29.5946 123.343 30.2892 123.543 31.0156 123.769L100 153.221L132.041 139.541C132.305 144.58 133.856 149.278 136.37 153.313L108.349 165.277C107.03 165.851 105.677 166.284 104.288 166.573C102.9 166.863 101.47 167.005 100 167C98.5297 166.995 97.1003 166.853 95.7119 166.573C94.3234 166.293 92.9695 165.861 91.6514 165.277L22.667 135.825C21.056 135.136 19.8837 134.276 19.1514 133.242C18.419 132.209 18.0527 131.06 18.0527 129.797C18.0528 127.845 18.8968 126.21 20.584 124.892C22.2712 123.573 24.3569 122.912 26.8408 122.907ZM173.159 95.3496C175.649 95.3496 177.738 96.0112 179.425 97.334C181.112 98.6568 181.953 100.292 181.947 102.239C181.947 103.502 181.581 104.65 180.849 105.684C180.116 106.717 178.944 107.579 177.333 108.268L171.248 110.864C168.062 109.66 164.608 109 161 109C149.018 109 138.733 116.267 134.312 126.634L108.349 137.72C107.03 138.294 105.677 138.725 104.288 139.015C102.9 139.304 101.47 139.447 100 139.442C98.5296 139.438 97.1003 139.295 95.7119 139.015C94.3234 138.734 92.9695 138.303 91.6514 137.72L22.667 108.268C21.0559 107.579 19.8837 106.717 19.1514 105.684C18.4192 104.65 18.0527 103.502 18.0527 102.239C18.0527 100.287 18.8968 98.6522 20.584 97.334C22.2712 96.0158 24.3569 95.3542 26.8408 95.3496C27.5731 95.3496 28.2706 95.4368 28.9326 95.6113C29.5946 95.7859 30.2892 95.9859 31.0156 96.2109L100 125.663L168.985 96.2109C169.279 96.096 170.67 95.8087 173.159 95.3496ZM100 33C101.459 33.0046 102.888 33.1499 104.288 33.4346C105.688 33.7193 107.042 34.1485 108.349 34.7227L182.606 66.4141C184.217 67.103 185.354 67.9647 186.016 68.998C186.678 70.0314 187.006 71.1794 187 72.4424C186.994 73.7054 186.666 74.8534 186.016 75.8867C185.365 76.9201 184.229 77.7818 182.606 78.4707L108.349 110.162C107.03 110.736 105.677 111.168 104.288 111.457C102.9 111.746 101.47 111.889 100 111.885C98.5355 111.885 97.1061 111.742 95.7119 111.457C94.3176 111.172 92.9637 110.741 91.6514 110.162L17.3945 78.4707C15.7834 77.7818 14.6464 76.9201 13.9844 75.8867C13.3225 74.8534 12.9942 73.7053 13 72.4424C13.0059 71.1795 13.3371 70.0314 13.9932 68.998C14.6493 67.9646 15.7834 67.103 17.3945 66.4141L91.6514 34.7227C92.9695 34.1485 94.3264 33.7171 95.7207 33.4277C97.1149 33.1384 98.5413 32.9954 100 33Z" fill="url(#paint0_linear_2284_78)"/>
<circle cx="161" cy="138" r="24" fill="#6AFFBA"/>
<path d="M147 138H174" stroke="#7C4FFF" stroke-width="6" stroke-linecap="round"/>
<path d="M161 125L161 152" stroke="#7C4FFF" stroke-width="6" stroke-linecap="round"/>
<defs>
<linearGradient id="paint0_linear_2284_78" x1="100" y1="33" x2="100" y2="167" gradientUnits="userSpaceOnUse">
<stop stop-color="#7C4FFF"/>
<stop offset="1" stop-color="#4A2F99"/>
</linearGradient>
</defs>
</svg>
